<svg xmlns="http://www.w3.org/2000/svg" xmlns:xlink="http://www.w3.org/1999/xlink" width="50" zoomAndPan="magnify" viewBox="0 0 37.5 37.499999" height="50" preserveAspectRatio="xMidYMid meet" version="1.0"><defs><clipPath id="fe03bf006c"><path d="M 1.597656 0 L 32 0 L 32 37.007812 L 1.597656 37.007812 Z M 1.597656 0 " clip-rule="nonzero"/></clipPath><clipPath id="57487cc827"><path d="M 28 17 L 35.640625 17 L 35.640625 25 L 28 25 Z M 28 17 " clip-rule="nonzero"/></clipPath></defs><g clip-path="url(#fe03bf006c)"><path fill="#000000" d="M 12.605469 14.929688 C 12.605469 8.796875 15.613281 3.359375 20.230469 0 C 9.976562 0 1.652344 8.265625 1.652344 18.503906 C 1.652344 28.6875 9.976562 37.007812 20.285156 37.007812 C 24.363281 37.007812 28.175781 35.671875 31.234375 33.433594 C 31.234375 33.433594 31.234375 33.433594 31.183594 33.433594 C 20.925781 33.433594 12.605469 25.167969 12.605469 14.929688 Z M 12.605469 14.929688 " fill-opacity="1" fill-rule="nonzero"/></g><g clip-path="url(#57487cc827)"><path fill="#000000" d="M 29.519531 24.316406 L 31.828125 23.089844 L 34.136719 24.316406 L 33.707031 21.757812 L 35.585938 19.941406 L 33.007812 19.570312 L 31.828125 17.222656 L 30.699219 19.570312 L 28.121094 19.941406 L 29.945312 21.757812 Z M 29.519531 24.316406 " fill-opacity="1" fill-rule="nonzero"/></g><path fill="#000000" d="M 33.542969 26.128906 L 33.007812 25.117188 L 32.46875 26.128906 L 31.289062 26.34375 L 32.148438 27.140625 L 31.933594 28.316406 L 33.007812 27.78125 L 34.082031 28.316406 L 33.867188 27.140625 L 34.726562 26.34375 Z M 33.542969 26.128906 " fill-opacity="1" fill-rule="nonzero"/><path fill="#000000" d="M 15.289062 19.089844 L 17.867188 21.597656 L 17.277344 25.167969 L 20.496094 23.460938 L 23.71875 25.167969 L 23.128906 21.597656 L 25.707031 19.089844 L 22.109375 18.554688 L 20.496094 15.304688 L 18.886719 18.554688 Z M 15.289062 19.089844 " fill-opacity="1" fill-rule="nonzero"/><path fill="#000000" d="M 25.757812 15.089844 L 26.402344 14.769531 L 26.996094 15.089844 L 26.886719 14.398438 L 27.371094 13.917969 L 26.671875 13.8125 L 26.402344 13.222656 L 26.082031 13.8125 L 25.382812 13.917969 L 25.867188 14.398438 Z M 25.757812 15.089844 " fill-opacity="1" fill-rule="nonzero"/></svg>