<svg xmlns="http://www.w3.org/2000/svg" xmlns:xlink="http://www.w3.org/1999/xlink" width="50" zoomAndPan="magnify" viewBox="0 0 37.5 37.499999" height="50" preserveAspectRatio="xMidYMid meet" version="1.0"><defs><clipPath id="784ffcf04a"><path d="M 1.597656 0 L 32 0 L 32 37.007812 L 1.597656 37.007812 Z M 1.597656 0 " clip-rule="nonzero"/></clipPath><clipPath id="07af7b85bf"><path d="M 27 17 L 35.640625 17 L 35.640625 25 L 27 25 Z M 27 17 " clip-rule="nonzero"/></clipPath></defs><g clip-path="url(#784ffcf04a)"><path fill="#ffffff" d="M 12.53125 14.929688 C 12.53125 8.796875 15.515625 3.359375 20.101562 0 C 9.917969 0 1.652344 8.265625 1.652344 18.503906 C 1.652344 28.6875 9.917969 37.007812 20.15625 37.007812 C 24.207031 37.007812 27.996094 35.671875 31.035156 33.433594 C 31.035156 33.433594 31.035156 33.433594 30.980469 33.433594 C 20.796875 33.433594 12.53125 25.167969 12.53125 14.929688 Z M 12.53125 14.929688 " fill-opacity="1" fill-rule="nonzero"/></g><g clip-path="url(#07af7b85bf)"><path fill="#ffffff" d="M 29.328125 24.316406 L 31.621094 23.089844 L 33.914062 24.316406 L 33.488281 21.757812 L 35.355469 19.941406 L 32.792969 19.570312 L 31.621094 17.222656 L 30.5 19.570312 L 27.941406 19.941406 L 29.753906 21.757812 Z M 29.328125 24.316406 " fill-opacity="1" fill-rule="nonzero"/></g><path fill="#ffffff" d="M 33.328125 26.128906 L 32.792969 25.117188 L 32.261719 26.128906 L 31.085938 26.34375 L 31.941406 27.140625 L 31.726562 28.316406 L 32.792969 27.78125 L 33.859375 28.316406 L 33.648438 27.140625 L 34.5 26.34375 Z M 33.328125 26.128906 " fill-opacity="1" fill-rule="nonzero"/><path fill="#ffffff" d="M 15.195312 19.089844 L 17.757812 21.597656 L 17.171875 25.167969 L 20.371094 23.460938 L 23.570312 25.167969 L 22.984375 21.597656 L 25.542969 19.089844 L 21.96875 18.554688 L 20.371094 15.304688 L 18.769531 18.554688 Z M 15.195312 19.089844 " fill-opacity="1" fill-rule="nonzero"/><path fill="#ffffff" d="M 25.59375 15.089844 L 26.234375 14.769531 L 26.820312 15.089844 L 26.714844 14.398438 L 27.195312 13.917969 L 26.5 13.8125 L 26.234375 13.222656 L 25.914062 13.8125 L 25.222656 13.917969 L 25.703125 14.398438 Z M 25.59375 15.089844 " fill-opacity="1" fill-rule="nonzero"/></svg>