<svg xmlns="http://www.w3.org/2000/svg" xmlns:xlink="http://www.w3.org/1999/xlink" width="50" zoomAndPan="magnify" viewBox="0 0 37.5 37.499999" height="50" preserveAspectRatio="xMidYMid meet" version="1.0"><defs><clipPath id="f3049a43d1"><path d="M 17 28 L 22 28 L 22 37.007812 L 17 37.007812 Z M 17 28 " clip-rule="nonzero"/></clipPath><clipPath id="54b13c02ac"><path d="M 28 15 L 37.007812 15 L 37.007812 21 L 28 21 Z M 28 15 " clip-rule="nonzero"/></clipPath></defs><path fill="#ffffff" d="M 20.007812 8.703125 C 19.71875 8.398438 19.464844 8.105469 19.246094 7.804688 L 19.164062 7.6875 L 19.125 7.628906 C 19.113281 7.609375 19.101562 7.59375 19.089844 7.574219 C 19.039062 7.496094 18.992188 7.417969 18.949219 7.339844 C 18.859375 7.179688 18.78125 7.015625 18.71875 6.847656 C 18.65625 6.683594 18.605469 6.511719 18.574219 6.34375 C 18.539062 6.175781 18.519531 6.003906 18.523438 5.835938 C 18.523438 5.75 18.527344 5.664062 18.539062 5.582031 C 18.539062 5.578125 18.539062 5.574219 18.539062 5.574219 L 18.539062 5.5625 L 18.550781 5.515625 C 18.550781 5.492188 18.554688 5.472656 18.5625 5.449219 L 18.578125 5.378906 C 18.578125 5.375 18.578125 5.367188 18.582031 5.363281 L 18.585938 5.34375 L 18.59375 5.308594 L 18.605469 5.269531 L 18.609375 5.253906 L 18.617188 5.234375 L 18.640625 5.160156 L 18.644531 5.140625 C 18.648438 5.132812 18.648438 5.128906 18.652344 5.121094 L 18.664062 5.082031 L 18.679688 5.042969 C 18.683594 5.03125 18.6875 5.015625 18.691406 5.003906 L 18.722656 4.921875 L 18.730469 4.902344 L 18.734375 4.890625 L 18.738281 4.882812 L 18.753906 4.839844 L 18.789062 4.757812 L 18.824219 4.671875 L 18.859375 4.582031 L 18.898438 4.496094 L 18.933594 4.402344 L 18.953125 4.359375 L 19.011719 4.21875 L 19.015625 4.207031 L 19.019531 4.191406 L 19.027344 4.167969 L 19.046875 4.121094 C 19.074219 4.058594 19.097656 3.988281 19.121094 3.921875 C 19.125 3.914062 19.125 3.90625 19.128906 3.898438 L 19.136719 3.871094 L 19.15625 3.820312 L 19.171875 3.769531 L 19.179688 3.742188 L 19.1875 3.71875 L 19.21875 3.613281 L 19.226562 3.585938 C 19.226562 3.578125 19.230469 3.566406 19.234375 3.558594 L 19.246094 3.503906 L 19.261719 3.449219 C 19.265625 3.433594 19.269531 3.414062 19.273438 3.394531 C 19.28125 3.359375 19.289062 3.324219 19.292969 3.285156 L 19.3125 3.175781 C 19.320312 3.140625 19.324219 3.105469 19.328125 3.070312 C 19.363281 2.78125 19.363281 2.496094 19.335938 2.226562 C 19.3125 1.953125 19.261719 1.691406 19.199219 1.441406 C 19.140625 1.1875 19.0625 0.945312 18.980469 0.707031 C 18.902344 0.46875 18.8125 0.234375 18.722656 0 C 18.722656 0.25 18.722656 0.5 18.710938 0.746094 C 18.703125 0.992188 18.683594 1.238281 18.65625 1.476562 C 18.640625 1.59375 18.621094 1.710938 18.597656 1.828125 C 18.578125 1.941406 18.550781 2.054688 18.519531 2.164062 C 18.457031 2.382812 18.375 2.585938 18.277344 2.769531 L 18.199219 2.902344 C 18.183594 2.921875 18.171875 2.941406 18.15625 2.964844 C 18.148438 2.976562 18.140625 2.984375 18.132812 2.996094 L 18.113281 3.027344 L 18.089844 3.058594 C 18.085938 3.0625 18.082031 3.066406 18.078125 3.074219 L 18.066406 3.085938 L 17.996094 3.179688 L 17.96875 3.210938 L 17.945312 3.238281 L 17.933594 3.253906 C 17.925781 3.261719 17.921875 3.265625 17.917969 3.269531 C 17.882812 3.3125 17.847656 3.351562 17.808594 3.394531 L 17.78125 3.425781 L 17.765625 3.441406 L 17.761719 3.449219 L 17.753906 3.457031 L 17.695312 3.519531 L 17.632812 3.582031 L 17.574219 3.644531 L 17.511719 3.710938 L 17.445312 3.78125 L 17.382812 3.847656 L 17.316406 3.917969 L 17.28125 3.957031 L 17.265625 3.972656 L 17.25 3.992188 L 17.179688 4.066406 C 17.171875 4.082031 17.160156 4.09375 17.148438 4.105469 L 17.113281 4.148438 L 17.078125 4.1875 C 17.074219 4.191406 17.066406 4.199219 17.0625 4.207031 L 17.046875 4.226562 L 16.976562 4.3125 L 16.960938 4.332031 L 16.941406 4.355469 L 16.910156 4.398438 L 16.875 4.445312 L 16.859375 4.46875 C 16.851562 4.476562 16.847656 4.484375 16.84375 4.492188 L 16.773438 4.585938 C 16.753906 4.617188 16.730469 4.652344 16.710938 4.6875 L 16.679688 4.738281 L 16.660156 4.765625 L 16.644531 4.789062 C 16.5625 4.933594 16.484375 5.078125 16.417969 5.230469 C 16.285156 5.535156 16.183594 5.851562 16.117188 6.171875 C 16.050781 6.492188 16.011719 6.8125 16 7.136719 C 15.988281 7.457031 16 7.777344 16.035156 8.09375 C 16.054688 8.253906 16.078125 8.410156 16.105469 8.566406 C 16.113281 8.605469 16.117188 8.644531 16.125 8.683594 C 16.132812 8.722656 16.140625 8.761719 16.148438 8.800781 C 16.15625 8.820312 16.160156 8.84375 16.164062 8.867188 C 16.914062 8.683594 17.699219 8.589844 18.503906 8.589844 C 19.011719 8.589844 19.515625 8.628906 20.003906 8.703125 Z M 20.007812 8.703125 " fill-opacity="1" fill-rule="nonzero"/><path fill="#ffffff" d="M 13.796875 8.863281 L 13.667969 8.804688 L 13.605469 8.773438 C 13.585938 8.765625 13.566406 8.753906 13.542969 8.746094 C 13.464844 8.703125 13.382812 8.660156 13.304688 8.613281 C 13.148438 8.519531 13 8.414062 12.863281 8.300781 C 12.726562 8.191406 12.597656 8.070312 12.484375 7.9375 C 12.371094 7.808594 12.269531 7.667969 12.183594 7.523438 C 12.144531 7.449219 12.105469 7.371094 12.074219 7.292969 C 12.070312 7.292969 12.070312 7.289062 12.070312 7.285156 L 12.058594 7.261719 L 12.046875 7.234375 C 12.039062 7.210938 12.03125 7.191406 12.027344 7.167969 L 12.003906 7.101562 C 12.003906 7.09375 12 7.089844 12 7.082031 L 11.996094 7.066406 L 11.984375 7.03125 L 11.976562 6.992188 L 11.96875 6.976562 L 11.945312 6.859375 C 11.941406 6.851562 11.941406 6.847656 11.941406 6.839844 L 11.933594 6.796875 L 11.925781 6.757812 C 11.921875 6.746094 11.917969 6.730469 11.917969 6.714844 L 11.902344 6.632812 L 11.898438 6.609375 L 11.898438 6.589844 L 11.890625 6.542969 L 11.878906 6.453125 L 11.863281 6.363281 L 11.839844 6.175781 L 11.828125 6.078125 L 11.8125 5.976562 L 11.796875 5.878906 L 11.796875 5.851562 L 11.789062 5.828125 L 11.78125 5.773438 C 11.773438 5.707031 11.757812 5.636719 11.746094 5.566406 C 11.746094 5.558594 11.742188 5.550781 11.742188 5.542969 L 11.738281 5.515625 L 11.726562 5.460938 L 11.714844 5.410156 L 11.710938 5.382812 L 11.703125 5.355469 L 11.675781 5.25 L 11.671875 5.222656 C 11.667969 5.214844 11.664062 5.203125 11.664062 5.195312 L 11.648438 5.140625 L 11.632812 5.089844 C 11.625 5.070312 11.621094 5.054688 11.617188 5.035156 C 11.605469 5 11.59375 4.964844 11.582031 4.929688 L 11.542969 4.824219 C 11.527344 4.792969 11.515625 4.757812 11.5 4.722656 C 11.386719 4.457031 11.242188 4.210938 11.085938 3.988281 C 10.929688 3.765625 10.753906 3.5625 10.574219 3.378906 C 10.394531 3.191406 10.210938 3.015625 10.019531 2.851562 C 9.828125 2.683594 9.636719 2.527344 9.441406 2.367188 C 9.566406 2.585938 9.691406 2.800781 9.804688 3.019531 C 9.921875 3.238281 10.027344 3.460938 10.121094 3.679688 C 10.167969 3.792969 10.210938 3.902344 10.25 4.011719 C 10.285156 4.125 10.320312 4.234375 10.347656 4.34375 C 10.402344 4.5625 10.433594 4.78125 10.4375 4.988281 L 10.441406 5.066406 L 10.4375 5.144531 C 10.4375 5.167969 10.433594 5.195312 10.433594 5.21875 C 10.433594 5.230469 10.429688 5.246094 10.429688 5.257812 L 10.425781 5.296875 L 10.421875 5.332031 C 10.421875 5.339844 10.421875 5.34375 10.421875 5.351562 L 10.417969 5.371094 L 10.40625 5.449219 L 10.40625 5.464844 L 10.402344 5.488281 L 10.386719 5.566406 L 10.382812 5.582031 C 10.382812 5.589844 10.382812 5.597656 10.378906 5.605469 C 10.371094 5.65625 10.359375 5.710938 10.347656 5.765625 L 10.339844 5.804688 L 10.332031 5.824219 L 10.332031 5.835938 L 10.328125 5.847656 L 10.308594 5.929688 L 10.300781 5.972656 L 10.289062 6.015625 L 10.269531 6.101562 L 10.246094 6.191406 L 10.226562 6.28125 L 10.203125 6.371094 L 10.183594 6.46875 L 10.171875 6.515625 L 10.167969 6.527344 L 10.167969 6.539062 L 10.160156 6.5625 L 10.140625 6.664062 C 10.136719 6.679688 10.132812 6.695312 10.128906 6.714844 L 10.113281 6.816406 C 10.109375 6.824219 10.109375 6.832031 10.105469 6.84375 L 10.101562 6.867188 L 10.0625 7.140625 L 10.0625 7.171875 C 10.058594 7.179688 10.058594 7.191406 10.058594 7.199219 L 10.046875 7.316406 C 10.042969 7.355469 10.042969 7.394531 10.042969 7.433594 L 10.039062 7.496094 L 10.039062 7.554688 C 10.035156 7.722656 10.042969 7.886719 10.0625 8.050781 C 10.097656 8.378906 10.167969 8.703125 10.269531 9.015625 C 10.371094 9.328125 10.5 9.625 10.652344 9.910156 C 10.800781 10.195312 10.972656 10.464844 11.160156 10.722656 C 11.257812 10.851562 11.355469 10.976562 11.457031 11.097656 C 11.484375 11.128906 11.507812 11.15625 11.535156 11.1875 C 11.5625 11.21875 11.585938 11.246094 11.613281 11.277344 C 11.628906 11.292969 11.644531 11.3125 11.660156 11.328125 C 12.589844 10.441406 13.6875 9.734375 14.902344 9.261719 C 14.503906 9.144531 14.136719 9.019531 13.796875 8.867188 Z M 13.796875 8.863281 " fill-opacity="1" fill-rule="nonzero"/><path fill="#ffffff" d="M 9.605469 12.507812 L 9.464844 12.523438 L 9.398438 12.527344 C 9.375 12.527344 9.351562 12.53125 9.328125 12.53125 C 9.238281 12.535156 9.148438 12.539062 9.054688 12.535156 C 8.875 12.53125 8.695312 12.519531 8.519531 12.488281 C 8.34375 12.460938 8.171875 12.417969 8.007812 12.363281 C 7.84375 12.308594 7.6875 12.238281 7.539062 12.152344 C 7.46875 12.109375 7.398438 12.0625 7.328125 12.011719 C 7.328125 12.007812 7.324219 12.007812 7.324219 12.007812 L 7.316406 12 L 7.304688 11.992188 L 7.277344 11.96875 C 7.261719 11.957031 7.242188 11.941406 7.226562 11.925781 L 7.171875 11.878906 C 7.167969 11.875 7.164062 11.871094 7.160156 11.867188 L 7.148438 11.851562 L 7.121094 11.824219 L 7.09375 11.800781 L 7.082031 11.785156 L 7.066406 11.769531 L 7.015625 11.714844 L 7 11.699219 C 6.996094 11.695312 6.992188 11.6875 6.988281 11.683594 L 6.933594 11.621094 C 6.925781 11.609375 6.914062 11.601562 6.90625 11.589844 L 6.851562 11.523438 L 6.835938 11.503906 L 6.832031 11.496094 L 6.824219 11.488281 L 6.742188 11.382812 L 6.625 11.234375 L 6.507812 11.078125 L 6.382812 10.921875 L 6.375 10.910156 L 6.367188 10.902344 L 6.351562 10.878906 L 6.320312 10.839844 C 6.277344 10.785156 6.230469 10.730469 6.183594 10.679688 C 6.179688 10.671875 6.171875 10.664062 6.167969 10.660156 L 6.148438 10.636719 L 6.078125 10.558594 L 6.058594 10.539062 L 6.039062 10.515625 L 5.964844 10.4375 L 5.945312 10.417969 C 5.9375 10.410156 5.929688 10.40625 5.925781 10.398438 L 5.886719 10.359375 L 5.84375 10.320312 C 5.832031 10.308594 5.816406 10.296875 5.804688 10.285156 C 5.777344 10.257812 5.75 10.234375 5.71875 10.210938 L 5.636719 10.140625 C 5.605469 10.117188 5.578125 10.09375 5.546875 10.070312 C 5.316406 9.894531 5.070312 9.753906 4.824219 9.640625 C 4.574219 9.527344 4.324219 9.441406 4.074219 9.367188 C 3.824219 9.296875 3.578125 9.238281 3.328125 9.191406 C 3.082031 9.140625 2.835938 9.101562 2.589844 9.058594 C 2.804688 9.1875 3.019531 9.3125 3.230469 9.445312 C 3.4375 9.574219 3.640625 9.710938 3.832031 9.859375 C 3.929688 9.929688 4.019531 10.003906 4.109375 10.082031 C 4.195312 10.160156 4.28125 10.238281 4.359375 10.320312 C 4.515625 10.480469 4.652344 10.652344 4.761719 10.832031 L 4.839844 10.964844 C 4.851562 10.988281 4.859375 11.011719 4.871094 11.035156 C 4.878906 11.046875 4.882812 11.058594 4.886719 11.070312 L 4.902344 11.101562 L 4.917969 11.136719 C 4.921875 11.144531 4.925781 11.148438 4.925781 11.15625 L 4.933594 11.171875 L 4.964844 11.246094 L 4.972656 11.261719 L 4.976562 11.28125 L 4.992188 11.320312 L 5.003906 11.355469 L 5.011719 11.375 C 5.015625 11.378906 5.015625 11.386719 5.019531 11.394531 C 5.035156 11.445312 5.054688 11.496094 5.070312 11.550781 L 5.082031 11.589844 L 5.089844 11.609375 L 5.09375 11.617188 L 5.097656 11.628906 L 5.121094 11.710938 L 5.144531 11.796875 L 5.171875 11.878906 L 5.195312 11.96875 L 5.277344 12.238281 L 5.300781 12.308594 L 5.308594 12.335938 L 5.339844 12.429688 C 5.347656 12.445312 5.351562 12.460938 5.359375 12.480469 L 5.375 12.527344 L 5.390625 12.578125 C 5.394531 12.585938 5.398438 12.59375 5.402344 12.601562 L 5.410156 12.628906 L 5.449219 12.730469 L 5.460938 12.753906 L 5.46875 12.78125 L 5.515625 12.882812 L 5.527344 12.910156 C 5.527344 12.917969 5.535156 12.925781 5.539062 12.9375 L 5.585938 13.042969 C 5.601562 13.078125 5.621094 13.113281 5.640625 13.148438 L 5.667969 13.203125 L 5.683594 13.226562 L 5.691406 13.242188 L 5.699219 13.253906 C 5.78125 13.398438 5.871094 13.539062 5.96875 13.671875 C 6.160156 13.9375 6.386719 14.183594 6.628906 14.402344 C 6.871094 14.621094 7.132812 14.816406 7.40625 14.988281 C 7.679688 15.160156 7.964844 15.308594 8.253906 15.433594 C 8.402344 15.5 8.546875 15.558594 8.699219 15.613281 C 8.734375 15.625 8.773438 15.640625 8.808594 15.652344 C 8.847656 15.664062 8.886719 15.675781 8.921875 15.6875 C 8.945312 15.695312 8.964844 15.703125 8.988281 15.710938 C 9.355469 14.449219 9.96875 13.296875 10.769531 12.300781 C 10.363281 12.398438 9.980469 12.472656 9.609375 12.511719 Z M 9.605469 12.507812 " fill-opacity="1" fill-rule="nonzero"/><path fill="#ffffff" d="M 8.703125 17 C 8.398438 17.285156 8.105469 17.542969 7.804688 17.761719 L 7.628906 17.878906 C 7.609375 17.894531 7.59375 17.90625 7.574219 17.917969 C 7.496094 17.96875 7.417969 18.015625 7.339844 18.058594 C 7.179688 18.144531 7.015625 18.222656 6.847656 18.285156 C 6.683594 18.351562 6.511719 18.398438 6.34375 18.433594 C 6.175781 18.46875 6.003906 18.484375 5.835938 18.484375 C 5.75 18.484375 5.664062 18.476562 5.582031 18.46875 C 5.578125 18.46875 5.574219 18.464844 5.574219 18.464844 L 5.5625 18.464844 L 5.546875 18.460938 L 5.515625 18.457031 C 5.492188 18.453125 5.472656 18.449219 5.449219 18.445312 L 5.378906 18.429688 C 5.375 18.429688 5.367188 18.425781 5.363281 18.425781 L 5.34375 18.421875 L 5.308594 18.410156 L 5.269531 18.402344 L 5.253906 18.394531 L 5.234375 18.390625 L 5.160156 18.367188 L 5.140625 18.359375 C 5.132812 18.359375 5.128906 18.355469 5.121094 18.355469 L 5.082031 18.339844 L 5.042969 18.328125 C 5.03125 18.324219 5.015625 18.316406 5.003906 18.3125 L 4.921875 18.28125 L 4.902344 18.273438 L 4.890625 18.269531 L 4.882812 18.265625 L 4.839844 18.25 L 4.757812 18.21875 L 4.671875 18.183594 L 4.582031 18.144531 L 4.496094 18.109375 L 4.402344 18.070312 L 4.359375 18.050781 L 4.3125 18.035156 L 4.21875 17.996094 L 4.207031 17.992188 L 4.191406 17.988281 L 4.167969 17.976562 L 4.121094 17.957031 C 4.058594 17.933594 3.988281 17.910156 3.921875 17.886719 C 3.914062 17.882812 3.90625 17.878906 3.898438 17.875 L 3.871094 17.867188 L 3.769531 17.835938 L 3.742188 17.828125 L 3.71875 17.820312 L 3.613281 17.789062 L 3.585938 17.78125 C 3.578125 17.777344 3.566406 17.773438 3.558594 17.773438 L 3.503906 17.757812 L 3.449219 17.746094 C 3.433594 17.742188 3.414062 17.738281 3.394531 17.734375 C 3.359375 17.726562 3.324219 17.71875 3.285156 17.710938 L 3.175781 17.691406 C 3.140625 17.6875 3.105469 17.683594 3.070312 17.679688 C 2.78125 17.644531 2.496094 17.644531 2.226562 17.667969 C 1.953125 17.695312 1.691406 17.742188 1.441406 17.804688 C 1.1875 17.867188 0.945312 17.941406 0.707031 18.023438 C 0.46875 18.105469 0.234375 18.191406 0 18.28125 C 0.25 18.28125 0.5 18.285156 0.746094 18.292969 C 0.992188 18.304688 1.238281 18.320312 1.476562 18.351562 C 1.59375 18.367188 1.710938 18.382812 1.828125 18.40625 C 1.941406 18.429688 2.054688 18.457031 2.164062 18.488281 C 2.382812 18.550781 2.585938 18.628906 2.769531 18.730469 L 2.902344 18.808594 C 2.921875 18.820312 2.945312 18.835938 2.964844 18.847656 C 2.976562 18.855469 2.984375 18.863281 2.996094 18.871094 L 3.027344 18.894531 L 3.058594 18.914062 C 3.0625 18.917969 3.066406 18.921875 3.074219 18.925781 L 3.085938 18.9375 L 3.148438 18.988281 L 3.210938 19.035156 L 3.238281 19.0625 L 3.253906 19.074219 C 3.261719 19.078125 3.265625 19.082031 3.269531 19.085938 C 3.3125 19.125 3.351562 19.15625 3.394531 19.195312 L 3.425781 19.226562 L 3.441406 19.238281 L 3.457031 19.253906 L 3.519531 19.3125 L 3.550781 19.339844 L 3.644531 19.433594 L 3.710938 19.496094 L 3.78125 19.558594 L 3.847656 19.625 L 3.917969 19.691406 L 3.957031 19.722656 L 3.964844 19.730469 L 3.972656 19.742188 L 3.992188 19.757812 L 4.066406 19.824219 C 4.082031 19.835938 4.09375 19.847656 4.105469 19.859375 L 4.148438 19.890625 L 4.1875 19.925781 C 4.191406 19.933594 4.199219 19.9375 4.207031 19.945312 L 4.226562 19.960938 L 4.3125 20.027344 L 4.332031 20.046875 L 4.355469 20.0625 L 4.398438 20.097656 L 4.445312 20.128906 L 4.46875 20.148438 C 4.476562 20.152344 4.484375 20.160156 4.492188 20.164062 L 4.585938 20.230469 C 4.617188 20.253906 4.652344 20.273438 4.6875 20.296875 L 4.738281 20.328125 L 4.765625 20.34375 L 4.789062 20.359375 C 4.933594 20.445312 5.078125 20.519531 5.230469 20.585938 C 5.535156 20.722656 5.851562 20.820312 6.171875 20.890625 C 6.492188 20.957031 6.8125 20.996094 7.136719 21.007812 C 7.457031 21.019531 7.777344 21.003906 8.09375 20.96875 C 8.253906 20.953125 8.410156 20.929688 8.566406 20.902344 C 8.605469 20.894531 8.644531 20.886719 8.683594 20.878906 C 8.722656 20.871094 8.761719 20.863281 8.800781 20.855469 C 8.820312 20.851562 8.84375 20.847656 8.867188 20.839844 C 8.683594 20.089844 8.589844 19.308594 8.589844 18.503906 C 8.589844 17.992188 8.628906 17.488281 8.703125 17 Z M 8.703125 17 " fill-opacity="1" fill-rule="nonzero"/><path fill="#ffffff" d="M 8.863281 23.210938 L 8.804688 23.339844 L 8.773438 23.398438 C 8.765625 23.421875 8.753906 23.441406 8.746094 23.460938 C 8.703125 23.542969 8.660156 23.621094 8.613281 23.699219 C 8.519531 23.855469 8.414062 24.003906 8.300781 24.144531 C 8.191406 24.28125 8.070312 24.410156 7.9375 24.523438 C 7.808594 24.636719 7.667969 24.738281 7.523438 24.820312 C 7.449219 24.863281 7.371094 24.902344 7.292969 24.933594 C 7.292969 24.933594 7.289062 24.9375 7.285156 24.9375 L 7.277344 24.941406 L 7.261719 24.945312 L 7.234375 24.957031 C 7.210938 24.964844 7.191406 24.972656 7.167969 24.980469 L 7.101562 25 C 7.09375 25.003906 7.089844 25.003906 7.082031 25.007812 L 7.066406 25.011719 L 7.03125 25.019531 L 6.992188 25.03125 L 6.976562 25.035156 L 6.957031 25.039062 L 6.878906 25.058594 L 6.859375 25.0625 C 6.851562 25.0625 6.847656 25.0625 6.839844 25.066406 L 6.796875 25.074219 L 6.757812 25.082031 C 6.746094 25.082031 6.730469 25.085938 6.714844 25.089844 L 6.632812 25.101562 L 6.609375 25.105469 L 6.597656 25.109375 L 6.589844 25.109375 L 6.542969 25.117188 L 6.363281 25.140625 L 6.269531 25.152344 L 6.175781 25.167969 L 6.078125 25.179688 L 6.027344 25.1875 L 5.976562 25.191406 L 5.878906 25.207031 L 5.863281 25.210938 L 5.851562 25.210938 L 5.828125 25.214844 L 5.773438 25.222656 C 5.707031 25.234375 5.636719 25.246094 5.566406 25.257812 C 5.558594 25.261719 5.550781 25.261719 5.542969 25.265625 L 5.515625 25.269531 L 5.460938 25.28125 L 5.410156 25.292969 L 5.382812 25.296875 L 5.355469 25.304688 L 5.25 25.328125 L 5.222656 25.335938 C 5.214844 25.339844 5.203125 25.339844 5.195312 25.34375 L 5.140625 25.359375 L 5.089844 25.375 C 5.070312 25.378906 5.054688 25.382812 5.035156 25.390625 C 5 25.402344 4.964844 25.414062 4.929688 25.425781 L 4.824219 25.464844 C 4.792969 25.476562 4.757812 25.492188 4.722656 25.503906 C 4.457031 25.621094 4.210938 25.761719 3.988281 25.921875 C 3.765625 26.078125 3.5625 26.25 3.378906 26.429688 C 3.191406 26.609375 3.015625 26.796875 2.851562 26.988281 C 2.683594 27.175781 2.527344 27.371094 2.367188 27.5625 C 2.585938 27.4375 2.800781 27.316406 3.019531 27.199219 C 3.238281 27.085938 3.460938 26.976562 3.679688 26.886719 C 3.792969 26.839844 3.902344 26.796875 4.011719 26.757812 C 4.125 26.71875 4.234375 26.6875 4.34375 26.660156 C 4.5625 26.605469 4.78125 26.570312 4.988281 26.566406 L 5.144531 26.566406 C 5.167969 26.570312 5.195312 26.570312 5.21875 26.574219 C 5.230469 26.574219 5.246094 26.574219 5.257812 26.574219 L 5.296875 26.578125 L 5.332031 26.582031 C 5.339844 26.585938 5.34375 26.585938 5.351562 26.585938 L 5.371094 26.589844 L 5.449219 26.597656 L 5.464844 26.601562 L 5.488281 26.605469 L 5.527344 26.613281 L 5.566406 26.617188 L 5.582031 26.621094 C 5.589844 26.621094 5.597656 26.625 5.605469 26.625 C 5.65625 26.636719 5.710938 26.644531 5.765625 26.660156 L 5.824219 26.671875 L 5.835938 26.675781 L 5.847656 26.675781 L 5.929688 26.695312 L 5.972656 26.707031 L 6.015625 26.714844 L 6.101562 26.738281 L 6.191406 26.757812 L 6.28125 26.78125 L 6.371094 26.800781 L 6.46875 26.824219 L 6.515625 26.835938 L 6.527344 26.835938 L 6.539062 26.839844 L 6.5625 26.84375 L 6.664062 26.867188 C 6.679688 26.867188 6.695312 26.871094 6.714844 26.875 L 6.765625 26.882812 L 6.816406 26.894531 C 6.824219 26.894531 6.832031 26.898438 6.84375 26.898438 L 6.867188 26.902344 L 6.976562 26.921875 L 7.03125 26.929688 L 7.085938 26.933594 L 7.140625 26.941406 L 7.171875 26.945312 C 7.179688 26.945312 7.191406 26.945312 7.199219 26.949219 L 7.316406 26.957031 C 7.355469 26.960938 7.394531 26.960938 7.433594 26.964844 L 7.496094 26.964844 L 7.527344 26.96875 L 7.554688 26.96875 C 7.722656 26.96875 7.886719 26.960938 8.050781 26.945312 C 8.378906 26.910156 8.703125 26.835938 9.015625 26.734375 C 9.328125 26.632812 9.625 26.503906 9.910156 26.355469 C 10.195312 26.203125 10.464844 26.03125 10.722656 25.84375 C 10.851562 25.75 10.976562 25.652344 11.097656 25.550781 C 11.128906 25.523438 11.15625 25.496094 11.1875 25.472656 C 11.21875 25.445312 11.246094 25.417969 11.277344 25.390625 C 11.292969 25.375 11.3125 25.359375 11.328125 25.34375 C 10.441406 24.417969 9.734375 23.316406 9.261719 22.101562 C 9.144531 22.503906 9.019531 22.871094 8.867188 23.210938 Z M 8.863281 23.210938 " fill-opacity="1" fill-rule="nonzero"/><path fill="#ffffff" d="M 12.507812 27.398438 L 12.523438 27.539062 L 12.527344 27.609375 C 12.527344 27.632812 12.53125 27.652344 12.53125 27.675781 C 12.535156 27.765625 12.539062 27.859375 12.535156 27.949219 C 12.53125 28.132812 12.519531 28.3125 12.488281 28.488281 C 12.460938 28.664062 12.417969 28.835938 12.363281 29 C 12.308594 29.164062 12.238281 29.320312 12.152344 29.464844 C 12.109375 29.539062 12.0625 29.609375 12.011719 29.675781 C 12.007812 29.679688 12.007812 29.679688 12.007812 29.683594 L 12 29.691406 L 11.992188 29.703125 L 11.96875 29.726562 C 11.957031 29.746094 11.941406 29.761719 11.925781 29.78125 L 11.878906 29.832031 C 11.875 29.835938 11.871094 29.839844 11.867188 29.84375 L 11.785156 29.925781 L 11.769531 29.9375 L 11.714844 29.992188 L 11.699219 30.003906 C 11.695312 30.007812 11.6875 30.015625 11.683594 30.019531 L 11.621094 30.074219 C 11.609375 30.082031 11.601562 30.089844 11.589844 30.101562 L 11.523438 30.15625 L 11.503906 30.167969 L 11.488281 30.183594 L 11.382812 30.265625 L 11.308594 30.324219 L 11.234375 30.378906 L 11.15625 30.4375 L 11.078125 30.5 L 11.039062 30.527344 L 10.921875 30.621094 L 10.910156 30.628906 L 10.902344 30.636719 L 10.878906 30.65625 L 10.839844 30.6875 C 10.785156 30.730469 10.730469 30.777344 10.679688 30.820312 C 10.671875 30.828125 10.664062 30.832031 10.660156 30.839844 L 10.636719 30.855469 L 10.597656 30.894531 L 10.558594 30.929688 L 10.539062 30.945312 L 10.515625 30.964844 L 10.417969 31.0625 C 10.410156 31.066406 10.40625 31.074219 10.398438 31.082031 L 10.320312 31.160156 C 10.308594 31.175781 10.296875 31.1875 10.285156 31.203125 C 10.257812 31.230469 10.234375 31.257812 10.210938 31.285156 L 10.140625 31.371094 C 10.117188 31.398438 10.09375 31.429688 10.070312 31.457031 C 9.894531 31.691406 9.753906 31.9375 9.640625 32.183594 C 9.527344 32.433594 9.441406 32.683594 9.367188 32.929688 C 9.296875 33.179688 9.238281 33.429688 9.191406 33.675781 C 9.140625 33.925781 9.101562 34.171875 9.058594 34.417969 C 9.1875 34.203125 9.3125 33.984375 9.445312 33.777344 C 9.574219 33.566406 9.710938 33.363281 9.859375 33.171875 C 9.929688 33.078125 10.003906 32.984375 10.082031 32.898438 C 10.160156 32.808594 10.238281 32.726562 10.320312 32.644531 C 10.480469 32.488281 10.652344 32.351562 10.832031 32.242188 L 10.898438 32.203125 L 10.964844 32.167969 C 10.988281 32.15625 11.011719 32.144531 11.035156 32.132812 C 11.046875 32.128906 11.058594 32.121094 11.070312 32.117188 L 11.101562 32.101562 L 11.136719 32.085938 C 11.144531 32.082031 11.148438 32.082031 11.15625 32.078125 L 11.171875 32.070312 L 11.246094 32.042969 L 11.261719 32.035156 L 11.28125 32.027344 L 11.320312 32.015625 L 11.355469 32 L 11.375 31.992188 C 11.378906 31.992188 11.386719 31.988281 11.394531 31.988281 C 11.445312 31.96875 11.496094 31.953125 11.550781 31.9375 L 11.589844 31.921875 L 11.609375 31.917969 L 11.617188 31.914062 L 11.628906 31.910156 L 11.710938 31.886719 L 11.753906 31.871094 L 11.796875 31.859375 L 11.878906 31.835938 L 12.238281 31.726562 L 12.308594 31.703125 L 12.335938 31.695312 L 12.429688 31.664062 C 12.445312 31.660156 12.460938 31.652344 12.480469 31.648438 L 12.527344 31.632812 L 12.578125 31.613281 C 12.585938 31.609375 12.59375 31.609375 12.601562 31.605469 L 12.628906 31.59375 L 12.730469 31.554688 L 12.753906 31.546875 L 12.78125 31.535156 L 12.832031 31.515625 L 12.882812 31.492188 L 12.910156 31.480469 C 12.917969 31.476562 12.925781 31.472656 12.9375 31.46875 L 13.042969 31.417969 C 13.078125 31.402344 13.113281 31.382812 13.148438 31.363281 L 13.242188 31.316406 L 13.253906 31.308594 C 13.398438 31.226562 13.539062 31.136719 13.671875 31.039062 C 13.9375 30.84375 14.183594 30.621094 14.402344 30.375 C 14.621094 30.132812 14.816406 29.871094 14.988281 29.597656 C 15.160156 29.328125 15.308594 29.042969 15.433594 28.75 C 15.5 28.605469 15.558594 28.457031 15.613281 28.308594 C 15.625 28.269531 15.640625 28.234375 15.652344 28.195312 C 15.664062 28.15625 15.675781 28.121094 15.6875 28.082031 C 15.695312 28.0625 15.703125 28.039062 15.710938 28.019531 C 14.449219 27.648438 13.296875 27.039062 12.300781 26.238281 C 12.398438 26.640625 12.472656 27.027344 12.511719 27.394531 Z M 12.507812 27.398438 " fill-opacity="1" fill-rule="nonzero"/><g clip-path="url(#f3049a43d1)"><path fill="#ffffff" d="M 17 28.304688 C 17.285156 28.605469 17.542969 28.902344 17.761719 29.203125 L 17.839844 29.320312 L 17.878906 29.375 C 17.894531 29.394531 17.90625 29.414062 17.917969 29.433594 C 17.96875 29.507812 18.015625 29.585938 18.058594 29.667969 C 18.144531 29.824219 18.222656 29.988281 18.285156 30.15625 C 18.351562 30.324219 18.398438 30.492188 18.433594 30.660156 C 18.46875 30.832031 18.484375 31 18.484375 31.171875 C 18.484375 31.257812 18.476562 31.339844 18.46875 31.425781 C 18.46875 31.429688 18.464844 31.429688 18.464844 31.433594 L 18.464844 31.441406 L 18.460938 31.457031 L 18.457031 31.492188 C 18.453125 31.511719 18.449219 31.535156 18.445312 31.558594 L 18.429688 31.625 C 18.429688 31.632812 18.425781 31.636719 18.425781 31.644531 L 18.421875 31.664062 L 18.410156 31.699219 L 18.402344 31.734375 L 18.394531 31.753906 L 18.390625 31.769531 L 18.367188 31.847656 L 18.359375 31.867188 C 18.359375 31.871094 18.355469 31.878906 18.355469 31.886719 L 18.339844 31.925781 L 18.328125 31.964844 C 18.324219 31.976562 18.316406 31.988281 18.3125 32.003906 L 18.28125 32.082031 L 18.273438 32.105469 L 18.269531 32.113281 L 18.265625 32.125 L 18.25 32.167969 L 18.21875 32.25 L 18.183594 32.335938 L 18.144531 32.421875 L 18.109375 32.511719 L 18.070312 32.601562 L 18.050781 32.648438 L 18.035156 32.695312 L 17.996094 32.789062 L 17.988281 32.8125 L 17.976562 32.835938 L 17.957031 32.886719 C 17.933594 32.949219 17.910156 33.015625 17.886719 33.082031 C 17.882812 33.089844 17.878906 33.101562 17.875 33.109375 L 17.867188 33.132812 L 17.851562 33.183594 L 17.835938 33.238281 L 17.828125 33.261719 L 17.820312 33.289062 L 17.789062 33.394531 L 17.78125 33.421875 C 17.777344 33.429688 17.773438 33.4375 17.773438 33.449219 L 17.757812 33.5 L 17.746094 33.554688 C 17.742188 33.574219 17.738281 33.589844 17.734375 33.609375 C 17.726562 33.648438 17.71875 33.683594 17.710938 33.71875 L 17.691406 33.828125 C 17.6875 33.863281 17.683594 33.902344 17.679688 33.9375 C 17.644531 34.226562 17.644531 34.507812 17.667969 34.78125 C 17.695312 35.054688 17.742188 35.3125 17.804688 35.566406 C 17.867188 35.816406 17.941406 36.0625 18.023438 36.300781 C 18.105469 36.539062 18.191406 36.773438 18.28125 37.007812 C 18.28125 36.757812 18.285156 36.507812 18.292969 36.261719 C 18.304688 36.011719 18.320312 35.769531 18.351562 35.53125 C 18.367188 35.410156 18.382812 35.292969 18.40625 35.179688 C 18.429688 35.0625 18.457031 34.953125 18.488281 34.84375 C 18.550781 34.625 18.628906 34.421875 18.730469 34.238281 L 18.808594 34.105469 C 18.820312 34.082031 18.835938 34.0625 18.847656 34.042969 C 18.855469 34.03125 18.863281 34.019531 18.871094 34.011719 L 18.894531 33.980469 L 18.914062 33.949219 C 18.917969 33.945312 18.921875 33.9375 18.925781 33.933594 L 18.9375 33.917969 L 18.988281 33.855469 L 19 33.84375 L 19.035156 33.796875 L 19.0625 33.765625 L 19.074219 33.75 C 19.078125 33.746094 19.082031 33.742188 19.085938 33.734375 C 19.125 33.695312 19.15625 33.652344 19.195312 33.613281 L 19.226562 33.582031 L 19.238281 33.566406 L 19.253906 33.550781 L 19.3125 33.488281 L 19.339844 33.457031 L 19.371094 33.425781 L 19.558594 33.226562 L 19.691406 33.085938 L 19.722656 33.050781 L 19.742188 33.03125 L 19.757812 33.011719 L 19.824219 32.9375 C 19.835938 32.925781 19.847656 32.910156 19.859375 32.898438 L 19.890625 32.859375 L 19.925781 32.820312 C 19.933594 32.8125 19.9375 32.804688 19.945312 32.800781 L 19.960938 32.777344 L 20.027344 32.695312 L 20.046875 32.671875 L 20.0625 32.652344 L 20.097656 32.605469 L 20.128906 32.5625 L 20.148438 32.539062 C 20.152344 32.53125 20.160156 32.523438 20.164062 32.515625 L 20.230469 32.417969 C 20.253906 32.386719 20.273438 32.351562 20.296875 32.320312 L 20.328125 32.265625 L 20.351562 32.230469 L 20.359375 32.214844 C 20.445312 32.074219 20.519531 31.925781 20.585938 31.773438 C 20.722656 31.472656 20.820312 31.15625 20.890625 30.835938 C 20.957031 30.515625 20.996094 30.191406 21.007812 29.871094 C 21.019531 29.546875 21.003906 29.226562 20.96875 28.910156 C 20.953125 28.753906 20.929688 28.597656 20.902344 28.441406 C 20.894531 28.402344 20.886719 28.363281 20.878906 28.324219 C 20.871094 28.285156 20.863281 28.246094 20.855469 28.207031 C 20.851562 28.183594 20.847656 28.160156 20.839844 28.140625 C 20.089844 28.320312 19.308594 28.417969 18.503906 28.417969 C 17.992188 28.417969 17.488281 28.378906 17 28.304688 Z M 17 28.304688 " fill-opacity="1" fill-rule="nonzero"/></g><path fill="#ffffff" d="M 23.210938 28.140625 L 23.339844 28.199219 L 23.398438 28.230469 C 23.421875 28.242188 23.441406 28.25 23.460938 28.261719 C 23.542969 28.304688 23.621094 28.347656 23.699219 28.394531 C 23.855469 28.488281 24.003906 28.589844 24.144531 28.703125 C 24.28125 28.816406 24.410156 28.9375 24.523438 29.066406 C 24.636719 29.199219 24.738281 29.335938 24.820312 29.484375 C 24.863281 29.558594 24.902344 29.632812 24.933594 29.710938 C 24.933594 29.714844 24.9375 29.71875 24.9375 29.71875 L 24.941406 29.726562 L 24.945312 29.742188 L 24.957031 29.773438 C 24.964844 29.792969 24.972656 29.816406 24.980469 29.835938 L 25 29.90625 C 25.003906 29.910156 25.003906 29.917969 25.007812 29.921875 L 25.011719 29.941406 L 25.019531 29.976562 L 25.03125 30.011719 L 25.039062 30.050781 L 25.0625 30.144531 C 25.0625 30.152344 25.0625 30.160156 25.066406 30.167969 L 25.082031 30.246094 C 25.082031 30.261719 25.085938 30.273438 25.089844 30.289062 L 25.101562 30.375 L 25.105469 30.394531 L 25.109375 30.40625 L 25.109375 30.417969 L 25.117188 30.460938 L 25.128906 30.550781 L 25.152344 30.738281 L 25.167969 30.832031 L 25.179688 30.929688 L 25.1875 30.976562 L 25.191406 31.027344 L 25.207031 31.128906 L 25.210938 31.140625 L 25.210938 31.152344 L 25.214844 31.179688 L 25.222656 31.230469 C 25.234375 31.296875 25.246094 31.371094 25.257812 31.4375 C 25.261719 31.445312 25.261719 31.457031 25.265625 31.464844 L 25.269531 31.492188 L 25.28125 31.542969 L 25.292969 31.597656 L 25.296875 31.625 L 25.304688 31.648438 L 25.328125 31.757812 L 25.335938 31.785156 C 25.339844 31.792969 25.339844 31.800781 25.34375 31.808594 L 25.375 31.917969 C 25.378906 31.933594 25.382812 31.953125 25.390625 31.972656 C 25.402344 32.007812 25.414062 32.042969 25.425781 32.078125 L 25.464844 32.179688 C 25.476562 32.214844 25.492188 32.246094 25.503906 32.28125 C 25.621094 32.550781 25.761719 32.792969 25.921875 33.015625 C 26.078125 33.242188 26.25 33.441406 26.429688 33.628906 C 26.609375 33.816406 26.796875 33.988281 26.988281 34.15625 C 27.175781 34.320312 27.371094 34.480469 27.5625 34.636719 C 27.4375 34.421875 27.316406 34.203125 27.199219 33.984375 C 27.085938 33.765625 26.976562 33.546875 26.886719 33.324219 C 26.839844 33.214844 26.796875 33.105469 26.757812 32.992188 C 26.71875 32.882812 26.6875 32.773438 26.660156 32.660156 C 26.605469 32.441406 26.570312 32.226562 26.566406 32.015625 L 26.566406 31.863281 C 26.570312 31.835938 26.570312 31.8125 26.574219 31.785156 C 26.574219 31.773438 26.574219 31.761719 26.574219 31.75 L 26.582031 31.671875 C 26.585938 31.667969 26.585938 31.660156 26.585938 31.652344 L 26.589844 31.636719 L 26.597656 31.558594 L 26.613281 31.480469 L 26.617188 31.441406 L 26.621094 31.421875 C 26.621094 31.414062 26.625 31.410156 26.625 31.402344 C 26.636719 31.347656 26.644531 31.296875 26.660156 31.242188 L 26.667969 31.199219 L 26.671875 31.179688 L 26.675781 31.171875 L 26.675781 31.160156 L 26.695312 31.074219 L 26.707031 31.035156 L 26.714844 30.992188 L 26.738281 30.90625 L 26.757812 30.816406 L 26.78125 30.726562 L 26.800781 30.632812 L 26.835938 30.492188 L 26.835938 30.480469 L 26.839844 30.464844 L 26.84375 30.441406 L 26.867188 30.34375 C 26.867188 30.328125 26.871094 30.308594 26.875 30.292969 L 26.882812 30.242188 L 26.894531 30.191406 C 26.894531 30.179688 26.898438 30.171875 26.898438 30.164062 L 26.902344 30.136719 L 26.921875 30.03125 L 26.929688 29.976562 L 26.933594 29.917969 L 26.945312 29.835938 C 26.945312 29.828125 26.945312 29.816406 26.949219 29.808594 L 26.957031 29.691406 C 26.960938 29.652344 26.960938 29.613281 26.964844 29.570312 L 26.964844 29.511719 L 26.96875 29.480469 L 26.96875 29.449219 C 26.96875 29.285156 26.960938 29.121094 26.945312 28.953125 C 26.910156 28.625 26.835938 28.300781 26.734375 27.992188 C 26.632812 27.679688 26.503906 27.378906 26.355469 27.09375 C 26.203125 26.8125 26.03125 26.539062 25.84375 26.285156 C 25.75 26.15625 25.652344 26.03125 25.550781 25.910156 C 25.523438 25.878906 25.496094 25.847656 25.472656 25.820312 C 25.445312 25.789062 25.417969 25.757812 25.390625 25.730469 C 25.375 25.710938 25.359375 25.695312 25.34375 25.679688 C 24.417969 26.5625 23.316406 27.269531 22.101562 27.742188 C 22.503906 27.863281 22.871094 27.988281 23.210938 28.140625 Z M 23.210938 28.140625 " fill-opacity="1" fill-rule="nonzero"/><path fill="#ffffff" d="M 27.398438 24.496094 L 27.539062 24.484375 L 27.609375 24.480469 C 27.632812 24.476562 27.652344 24.476562 27.675781 24.476562 C 27.765625 24.46875 27.859375 24.46875 27.949219 24.46875 C 28.132812 24.472656 28.3125 24.488281 28.488281 24.515625 C 28.664062 24.546875 28.835938 24.585938 29 24.640625 C 29.164062 24.699219 29.320312 24.769531 29.464844 24.851562 C 29.539062 24.894531 29.609375 24.941406 29.675781 24.996094 C 29.679688 24.996094 29.679688 24.996094 29.683594 25 L 29.691406 25.003906 L 29.703125 25.015625 L 29.726562 25.035156 C 29.746094 25.050781 29.761719 25.0625 29.78125 25.082031 L 29.832031 25.128906 C 29.835938 25.132812 29.839844 25.136719 29.84375 25.140625 L 29.859375 25.152344 L 29.886719 25.179688 L 29.910156 25.207031 L 29.925781 25.21875 L 29.9375 25.234375 L 29.992188 25.292969 L 30.003906 25.308594 C 30.007812 25.3125 30.015625 25.316406 30.019531 25.324219 L 30.074219 25.386719 C 30.082031 25.394531 30.089844 25.40625 30.101562 25.417969 L 30.15625 25.484375 L 30.167969 25.5 L 30.175781 25.507812 L 30.183594 25.519531 L 30.265625 25.625 L 30.324219 25.699219 L 30.378906 25.773438 L 30.4375 25.847656 L 30.5 25.925781 L 30.527344 25.964844 L 30.558594 26.003906 L 30.621094 26.085938 L 30.628906 26.09375 L 30.636719 26.105469 L 30.65625 26.125 L 30.6875 26.164062 C 30.730469 26.21875 30.777344 26.273438 30.820312 26.328125 C 30.828125 26.335938 30.832031 26.339844 30.839844 26.347656 L 30.855469 26.367188 L 30.894531 26.410156 L 30.929688 26.449219 L 30.945312 26.46875 L 31.0625 26.585938 C 31.066406 26.59375 31.074219 26.601562 31.082031 26.605469 L 31.160156 26.683594 C 31.175781 26.699219 31.1875 26.710938 31.203125 26.722656 C 31.230469 26.746094 31.257812 26.773438 31.285156 26.796875 L 31.371094 26.867188 C 31.398438 26.890625 31.429688 26.914062 31.457031 26.933594 C 31.691406 27.109375 31.9375 27.25 32.183594 27.363281 C 32.433594 27.480469 32.683594 27.566406 32.929688 27.640625 C 33.179688 27.710938 33.429688 27.769531 33.675781 27.816406 C 33.925781 27.863281 34.171875 27.90625 34.417969 27.945312 C 34.203125 27.820312 33.984375 27.695312 33.777344 27.5625 C 33.566406 27.429688 33.363281 27.292969 33.171875 27.148438 C 33.078125 27.074219 32.984375 27 32.898438 26.925781 C 32.808594 26.847656 32.726562 26.769531 32.644531 26.6875 C 32.488281 26.523438 32.351562 26.351562 32.242188 26.175781 L 32.203125 26.109375 L 32.167969 26.039062 C 32.15625 26.015625 32.144531 25.996094 32.132812 25.972656 C 32.128906 25.960938 32.121094 25.949219 32.117188 25.9375 L 32.085938 25.867188 C 32.082031 25.863281 32.082031 25.855469 32.078125 25.851562 L 32.070312 25.832031 L 32.042969 25.761719 L 32.035156 25.742188 L 32.027344 25.726562 L 32.015625 25.6875 L 32 25.648438 L 31.992188 25.632812 C 31.992188 25.625 31.988281 25.617188 31.988281 25.613281 C 31.96875 25.5625 31.953125 25.511719 31.9375 25.457031 L 31.921875 25.417969 L 31.917969 25.398438 L 31.914062 25.386719 L 31.910156 25.378906 L 31.886719 25.292969 L 31.871094 25.253906 L 31.835938 25.125 L 31.808594 25.039062 L 31.753906 24.859375 L 31.726562 24.765625 L 31.695312 24.671875 L 31.664062 24.574219 C 31.660156 24.558594 31.652344 24.542969 31.648438 24.527344 L 31.632812 24.476562 L 31.613281 24.429688 C 31.609375 24.421875 31.609375 24.410156 31.605469 24.402344 L 31.59375 24.378906 L 31.554688 24.277344 L 31.546875 24.25 L 31.535156 24.226562 L 31.515625 24.175781 L 31.492188 24.121094 L 31.480469 24.097656 C 31.476562 24.085938 31.472656 24.078125 31.46875 24.070312 L 31.417969 23.964844 C 31.402344 23.929688 31.382812 23.894531 31.363281 23.859375 L 31.335938 23.804688 L 31.320312 23.777344 L 31.316406 23.765625 L 31.308594 23.75 C 31.226562 23.605469 31.136719 23.46875 31.039062 23.335938 C 30.84375 23.066406 30.621094 22.820312 30.375 22.601562 C 30.132812 22.382812 29.871094 22.1875 29.597656 22.019531 C 29.328125 21.847656 29.042969 21.699219 28.75 21.570312 C 28.605469 21.507812 28.457031 21.449219 28.308594 21.394531 C 28.269531 21.378906 28.234375 21.367188 28.195312 21.355469 C 28.15625 21.34375 28.121094 21.328125 28.082031 21.316406 C 28.0625 21.308594 28.039062 21.304688 28.019531 21.296875 C 27.648438 22.554688 27.039062 23.710938 26.238281 24.707031 C 26.640625 24.609375 27.027344 24.535156 27.394531 24.496094 Z M 27.398438 24.496094 " fill-opacity="1" fill-rule="nonzero"/><g clip-path="url(#54b13c02ac)"><path fill="#ffffff" d="M 36.261719 18.710938 C 36.011719 18.703125 35.769531 18.683594 35.53125 18.65625 C 35.410156 18.640625 35.292969 18.621094 35.179688 18.597656 C 35.0625 18.578125 34.953125 18.550781 34.84375 18.519531 C 34.625 18.457031 34.421875 18.375 34.238281 18.277344 L 34.105469 18.199219 C 34.082031 18.183594 34.0625 18.171875 34.042969 18.15625 C 34.03125 18.148438 34.019531 18.140625 34.011719 18.132812 L 33.980469 18.113281 L 33.949219 18.089844 C 33.945312 18.085938 33.9375 18.082031 33.933594 18.078125 L 33.855469 18.019531 L 33.84375 18.007812 L 33.828125 17.996094 L 33.796875 17.96875 L 33.765625 17.945312 L 33.75 17.929688 C 33.746094 17.925781 33.742188 17.921875 33.734375 17.917969 C 33.695312 17.882812 33.652344 17.847656 33.613281 17.808594 L 33.582031 17.78125 L 33.566406 17.765625 L 33.558594 17.761719 L 33.550781 17.753906 L 33.488281 17.695312 L 33.425781 17.632812 L 33.359375 17.574219 L 33.292969 17.511719 L 33.226562 17.445312 L 33.15625 17.382812 L 33.085938 17.316406 L 33.042969 17.273438 L 33.03125 17.265625 L 33.011719 17.25 L 32.9375 17.179688 C 32.925781 17.171875 32.914062 17.160156 32.898438 17.148438 L 32.820312 17.078125 C 32.8125 17.074219 32.804688 17.066406 32.800781 17.0625 L 32.777344 17.046875 L 32.695312 16.976562 L 32.671875 16.960938 L 32.652344 16.941406 L 32.605469 16.910156 L 32.5625 16.875 L 32.539062 16.859375 C 32.53125 16.851562 32.523438 16.847656 32.515625 16.84375 L 32.417969 16.773438 C 32.386719 16.753906 32.351562 16.730469 32.320312 16.710938 L 32.269531 16.679688 L 32.242188 16.660156 L 32.230469 16.652344 L 32.214844 16.644531 C 32.074219 16.5625 31.925781 16.484375 31.773438 16.417969 C 31.472656 16.285156 31.15625 16.183594 30.835938 16.117188 C 30.515625 16.050781 30.191406 16.011719 29.871094 16 C 29.546875 15.988281 29.226562 16 28.910156 16.035156 C 28.753906 16.054688 28.597656 16.078125 28.441406 16.105469 C 28.402344 16.113281 28.363281 16.117188 28.324219 16.125 C 28.285156 16.132812 28.246094 16.140625 28.207031 16.148438 C 28.183594 16.15625 28.164062 16.160156 28.140625 16.164062 C 28.320312 16.914062 28.417969 17.699219 28.417969 18.503906 C 28.417969 19.015625 28.378906 19.515625 28.304688 20.007812 C 28.609375 19.71875 28.902344 19.464844 29.203125 19.246094 L 29.320312 19.164062 L 29.375 19.125 C 29.394531 19.113281 29.414062 19.101562 29.433594 19.089844 C 29.507812 19.039062 29.585938 18.992188 29.667969 18.949219 C 29.824219 18.859375 29.988281 18.78125 30.15625 18.71875 C 30.324219 18.65625 30.492188 18.605469 30.664062 18.574219 C 30.832031 18.539062 31 18.519531 31.171875 18.523438 C 31.257812 18.523438 31.339844 18.527344 31.425781 18.539062 C 31.429688 18.539062 31.429688 18.539062 31.433594 18.539062 L 31.441406 18.539062 L 31.457031 18.542969 L 31.492188 18.550781 C 31.511719 18.550781 31.535156 18.554688 31.558594 18.5625 L 31.625 18.578125 C 31.632812 18.578125 31.636719 18.578125 31.644531 18.582031 L 31.664062 18.585938 L 31.699219 18.59375 L 31.734375 18.605469 L 31.753906 18.609375 L 31.773438 18.617188 L 31.847656 18.640625 L 31.867188 18.644531 C 31.871094 18.648438 31.878906 18.648438 31.886719 18.652344 L 31.925781 18.664062 L 31.964844 18.679688 C 31.976562 18.683594 31.988281 18.6875 32.003906 18.691406 L 32.082031 18.722656 L 32.105469 18.730469 L 32.113281 18.734375 L 32.125 18.738281 L 32.167969 18.753906 L 32.25 18.789062 L 32.421875 18.859375 L 32.511719 18.898438 L 32.601562 18.933594 L 32.789062 19.011719 L 32.835938 19.027344 L 32.886719 19.046875 C 32.949219 19.074219 33.015625 19.097656 33.082031 19.121094 C 33.089844 19.125 33.101562 19.125 33.109375 19.128906 L 33.132812 19.136719 L 33.183594 19.15625 L 33.238281 19.171875 L 33.261719 19.179688 L 33.289062 19.1875 L 33.394531 19.21875 L 33.421875 19.226562 C 33.429688 19.226562 33.4375 19.230469 33.449219 19.234375 L 33.503906 19.246094 L 33.554688 19.261719 C 33.574219 19.265625 33.59375 19.269531 33.609375 19.273438 C 33.648438 19.28125 33.683594 19.289062 33.71875 19.292969 L 33.828125 19.3125 C 33.863281 19.316406 33.902344 19.324219 33.9375 19.328125 C 34.226562 19.363281 34.507812 19.363281 34.78125 19.335938 C 35.054688 19.3125 35.3125 19.261719 35.566406 19.199219 C 35.816406 19.140625 36.0625 19.0625 36.300781 18.980469 C 36.539062 18.902344 36.773438 18.8125 37.007812 18.722656 C 36.757812 18.722656 36.507812 18.71875 36.257812 18.710938 Z M 36.261719 18.710938 " fill-opacity="1" fill-rule="nonzero"/></g><path fill="#ffffff" d="M 28.140625 13.796875 L 28.199219 13.667969 L 28.230469 13.605469 C 28.242188 13.585938 28.25 13.566406 28.261719 13.542969 C 28.304688 13.464844 28.347656 13.382812 28.394531 13.304688 C 28.488281 13.148438 28.589844 13 28.703125 12.863281 C 28.816406 12.726562 28.9375 12.597656 29.066406 12.484375 C 29.199219 12.371094 29.335938 12.269531 29.484375 12.183594 C 29.558594 12.144531 29.632812 12.105469 29.710938 12.074219 C 29.714844 12.070312 29.71875 12.070312 29.71875 12.070312 L 29.742188 12.058594 L 29.773438 12.046875 C 29.792969 12.039062 29.816406 12.03125 29.835938 12.027344 L 29.90625 12.003906 C 29.910156 12.003906 29.917969 12 29.921875 12 L 29.941406 11.996094 L 29.976562 11.984375 L 30.011719 11.976562 L 30.03125 11.96875 L 30.128906 11.949219 L 30.144531 11.945312 C 30.152344 11.941406 30.160156 11.941406 30.167969 11.941406 L 30.246094 11.925781 C 30.261719 11.921875 30.273438 11.917969 30.289062 11.917969 L 30.375 11.902344 L 30.394531 11.898438 L 30.417969 11.898438 L 30.460938 11.890625 L 30.550781 11.878906 L 30.644531 11.863281 L 30.832031 11.839844 L 30.929688 11.828125 L 30.976562 11.820312 L 31.128906 11.796875 L 31.152344 11.796875 L 31.179688 11.789062 L 31.230469 11.78125 C 31.296875 11.773438 31.371094 11.757812 31.4375 11.746094 C 31.445312 11.746094 31.457031 11.742188 31.464844 11.742188 L 31.492188 11.738281 L 31.542969 11.726562 L 31.597656 11.714844 L 31.625 11.710938 L 31.648438 11.703125 L 31.757812 11.675781 L 31.785156 11.671875 C 31.792969 11.667969 31.800781 11.664062 31.808594 11.664062 L 31.917969 11.632812 C 31.933594 11.625 31.953125 11.621094 31.972656 11.617188 C 32.007812 11.605469 32.042969 11.59375 32.078125 11.582031 L 32.179688 11.542969 C 32.214844 11.527344 32.246094 11.515625 32.28125 11.5 C 32.550781 11.386719 32.792969 11.242188 33.015625 11.085938 C 33.242188 10.929688 33.441406 10.753906 33.628906 10.574219 C 33.816406 10.394531 33.988281 10.210938 34.15625 10.019531 C 34.320312 9.828125 34.480469 9.636719 34.636719 9.441406 C 34.421875 9.566406 34.203125 9.691406 33.984375 9.804688 C 33.765625 9.921875 33.546875 10.027344 33.324219 10.121094 C 33.214844 10.167969 33.105469 10.210938 32.992188 10.25 C 32.882812 10.285156 32.773438 10.320312 32.660156 10.347656 C 32.441406 10.402344 32.226562 10.433594 32.015625 10.4375 L 31.9375 10.441406 L 31.863281 10.4375 C 31.835938 10.4375 31.8125 10.433594 31.785156 10.433594 C 31.773438 10.433594 31.761719 10.429688 31.75 10.429688 L 31.671875 10.421875 C 31.667969 10.421875 31.660156 10.421875 31.65625 10.421875 L 31.636719 10.417969 L 31.558594 10.40625 L 31.539062 10.40625 L 31.421875 10.382812 C 31.414062 10.382812 31.410156 10.382812 31.402344 10.378906 C 31.347656 10.371094 31.296875 10.359375 31.242188 10.347656 L 31.199219 10.339844 L 31.179688 10.332031 L 31.171875 10.332031 L 31.160156 10.328125 L 31.074219 10.308594 L 31.035156 10.300781 L 30.992188 10.289062 L 30.90625 10.269531 L 30.816406 10.246094 L 30.726562 10.226562 L 30.632812 10.203125 L 30.539062 10.183594 L 30.492188 10.171875 L 30.480469 10.167969 L 30.464844 10.167969 L 30.441406 10.160156 L 30.34375 10.140625 C 30.328125 10.136719 30.308594 10.132812 30.292969 10.128906 L 30.191406 10.113281 C 30.179688 10.109375 30.171875 10.109375 30.164062 10.105469 L 30.136719 10.101562 L 30.03125 10.085938 L 29.976562 10.078125 L 29.917969 10.070312 L 29.863281 10.0625 L 29.835938 10.0625 C 29.828125 10.058594 29.816406 10.058594 29.808594 10.058594 L 29.691406 10.046875 C 29.652344 10.042969 29.613281 10.042969 29.570312 10.042969 L 29.511719 10.039062 L 29.449219 10.039062 C 29.285156 10.035156 29.121094 10.042969 28.953125 10.0625 C 28.625 10.097656 28.300781 10.167969 27.992188 10.269531 C 27.679688 10.371094 27.378906 10.5 27.09375 10.652344 C 26.8125 10.800781 26.539062 10.972656 26.285156 11.160156 C 26.15625 11.257812 26.03125 11.355469 25.910156 11.457031 C 25.878906 11.484375 25.847656 11.507812 25.820312 11.535156 C 25.789062 11.5625 25.757812 11.585938 25.730469 11.613281 C 25.710938 11.628906 25.695312 11.644531 25.679688 11.660156 C 26.5625 12.589844 27.269531 13.6875 27.742188 14.902344 C 27.863281 14.503906 27.988281 14.136719 28.140625 13.796875 Z M 28.140625 13.796875 " fill-opacity="1" fill-rule="nonzero"/><path fill="#ffffff" d="M 24.496094 9.605469 L 24.484375 9.464844 L 24.480469 9.398438 C 24.476562 9.375 24.476562 9.351562 24.476562 9.328125 C 24.46875 9.238281 24.46875 9.148438 24.46875 9.054688 C 24.472656 8.875 24.488281 8.695312 24.515625 8.519531 C 24.546875 8.34375 24.585938 8.171875 24.640625 8.007812 C 24.699219 7.84375 24.769531 7.6875 24.851562 7.539062 C 24.894531 7.46875 24.941406 7.398438 24.996094 7.328125 C 24.996094 7.328125 25 7.324219 25 7.324219 L 25.003906 7.316406 L 25.015625 7.304688 L 25.035156 7.277344 C 25.050781 7.261719 25.0625 7.242188 25.082031 7.226562 L 25.128906 7.171875 C 25.132812 7.167969 25.136719 7.164062 25.140625 7.160156 L 25.234375 7.066406 L 25.292969 7.015625 L 25.308594 7 C 25.3125 6.996094 25.316406 6.992188 25.324219 6.988281 L 25.386719 6.933594 C 25.394531 6.925781 25.40625 6.914062 25.417969 6.90625 L 25.484375 6.851562 L 25.5 6.835938 L 25.507812 6.832031 L 25.519531 6.824219 L 25.625 6.742188 L 25.847656 6.566406 L 25.925781 6.507812 L 26.003906 6.445312 L 26.085938 6.382812 L 26.09375 6.375 L 26.105469 6.367188 L 26.164062 6.320312 C 26.21875 6.277344 26.273438 6.230469 26.328125 6.183594 C 26.335938 6.179688 26.339844 6.171875 26.347656 6.167969 L 26.367188 6.148438 L 26.410156 6.113281 L 26.449219 6.078125 L 26.488281 6.039062 L 26.566406 5.964844 L 26.585938 5.945312 C 26.59375 5.9375 26.601562 5.929688 26.605469 5.925781 L 26.644531 5.886719 L 26.683594 5.84375 C 26.699219 5.832031 26.710938 5.816406 26.722656 5.804688 C 26.746094 5.777344 26.773438 5.75 26.796875 5.71875 L 26.867188 5.636719 C 26.890625 5.605469 26.914062 5.578125 26.933594 5.546875 C 27.109375 5.316406 27.25 5.070312 27.363281 4.820312 C 27.480469 4.574219 27.566406 4.324219 27.640625 4.074219 C 27.710938 3.824219 27.769531 3.578125 27.816406 3.328125 C 27.863281 3.082031 27.90625 2.835938 27.945312 2.589844 C 27.820312 2.804688 27.695312 3.019531 27.5625 3.230469 C 27.429688 3.4375 27.292969 3.640625 27.148438 3.832031 C 27.074219 3.929688 27 4.019531 26.925781 4.109375 C 26.847656 4.195312 26.769531 4.28125 26.6875 4.359375 C 26.523438 4.515625 26.351562 4.652344 26.175781 4.761719 L 26.109375 4.800781 L 26.039062 4.839844 C 26.015625 4.851562 25.996094 4.859375 25.972656 4.871094 C 25.960938 4.878906 25.949219 4.882812 25.9375 4.886719 L 25.867188 4.917969 C 25.863281 4.921875 25.855469 4.925781 25.851562 4.925781 L 25.832031 4.933594 L 25.761719 4.964844 L 25.742188 4.972656 L 25.726562 4.976562 L 25.6875 4.992188 L 25.648438 5.003906 L 25.632812 5.011719 C 25.625 5.015625 25.617188 5.015625 25.613281 5.019531 C 25.5625 5.035156 25.511719 5.054688 25.457031 5.070312 L 25.417969 5.082031 L 25.398438 5.089844 L 25.386719 5.09375 L 25.378906 5.09375 L 25.292969 5.121094 L 25.253906 5.132812 L 25.210938 5.144531 L 25.125 5.171875 L 25.039062 5.195312 L 24.859375 5.25 L 24.765625 5.277344 L 24.671875 5.308594 L 24.574219 5.339844 C 24.558594 5.347656 24.542969 5.351562 24.527344 5.359375 L 24.476562 5.375 L 24.429688 5.390625 C 24.421875 5.394531 24.410156 5.398438 24.402344 5.402344 L 24.378906 5.410156 L 24.277344 5.449219 L 24.25 5.460938 L 24.226562 5.46875 L 24.175781 5.492188 L 24.121094 5.515625 L 24.097656 5.523438 C 24.085938 5.527344 24.078125 5.535156 24.070312 5.539062 L 23.964844 5.585938 C 23.929688 5.601562 23.894531 5.621094 23.859375 5.640625 L 23.804688 5.667969 L 23.777344 5.683594 L 23.765625 5.691406 L 23.75 5.699219 C 23.605469 5.78125 23.46875 5.871094 23.335938 5.964844 C 23.066406 6.160156 22.820312 6.386719 22.601562 6.628906 C 22.382812 6.871094 22.1875 7.132812 22.019531 7.40625 C 21.847656 7.679688 21.699219 7.964844 21.570312 8.253906 C 21.507812 8.402344 21.449219 8.546875 21.394531 8.699219 C 21.378906 8.734375 21.367188 8.773438 21.355469 8.808594 C 21.34375 8.847656 21.328125 8.886719 21.316406 8.921875 C 21.308594 8.945312 21.304688 8.964844 21.296875 8.988281 C 22.554688 9.355469 23.710938 9.96875 24.707031 10.769531 C 24.609375 10.363281 24.535156 9.980469 24.496094 9.609375 Z M 24.496094 9.605469 " fill-opacity="1" fill-rule="nonzero"/><path fill="#ffffff" d="M 26.640625 16.527344 C 26.550781 16.164062 26.441406 15.808594 26.304688 15.464844 C 25.90625 14.4375 25.308594 13.507812 24.5625 12.726562 C 24.304688 12.457031 24.03125 12.207031 23.742188 11.972656 C 22.898438 11.296875 21.925781 10.78125 20.863281 10.46875 C 20.507812 10.363281 20.144531 10.285156 19.773438 10.226562 C 19.359375 10.164062 18.933594 10.132812 18.503906 10.132812 C 17.824219 10.132812 17.160156 10.210938 16.527344 10.367188 C 16.164062 10.453125 15.808594 10.566406 15.464844 10.699219 C 14.4375 11.101562 13.507812 11.695312 12.726562 12.445312 C 12.457031 12.699219 12.207031 12.976562 11.972656 13.265625 C 11.296875 14.105469 10.78125 15.082031 10.46875 16.144531 C 10.363281 16.496094 10.285156 16.859375 10.226562 17.234375 C 10.164062 17.648438 10.132812 18.070312 10.132812 18.503906 C 10.132812 19.183594 10.210938 19.84375 10.367188 20.476562 C 10.453125 20.84375 10.566406 21.199219 10.699219 21.542969 C 11.101562 22.570312 11.699219 23.496094 12.445312 24.28125 C 12.699219 24.550781 12.976562 24.800781 13.265625 25.035156 C 14.105469 25.710938 15.082031 26.226562 16.144531 26.539062 C 16.496094 26.640625 16.859375 26.722656 17.234375 26.777344 C 17.648438 26.84375 18.070312 26.875 18.503906 26.875 C 19.183594 26.875 19.84375 26.792969 20.476562 26.640625 C 20.84375 26.550781 21.199219 26.441406 21.542969 26.304688 C 22.570312 25.90625 23.496094 25.308594 24.28125 24.5625 C 24.550781 24.304688 24.800781 24.03125 25.035156 23.742188 C 25.710938 22.898438 26.226562 21.925781 26.539062 20.863281 C 26.640625 20.507812 26.722656 20.144531 26.777344 19.773438 C 26.84375 19.359375 26.875 18.933594 26.875 18.503906 C 26.875 17.824219 26.792969 17.160156 26.640625 16.527344 Z M 26.640625 16.527344 " fill-opacity="1" fill-rule="nonzero"/></svg>